<?xml version="1.0"?>

<!DOCTYPE svg PUBLIC '-//W3C//DTD SVG 1.0//EN' 'http://www.w3.org/TR/2001/REC-SVG-20010904/DTD/svg10.dtd'>
<svg fill-opacity="1" xmlns:xlink="http://www.w3.org/1999/xlink" color-rendering="auto" color-interpolation="auto" text-rendering="auto" stroke="black" stroke-linecap="square" stroke-miterlimit="10" shape-rendering="auto" stroke-opacity="1" fill="black" stroke-dasharray="none" font-weight="normal" stroke-width="1" xmlns="http://www.w3.org/2000/svg" font-family="&apos;Dialog&apos;" font-style="normal" stroke-linejoin="miter" font-size="12" stroke-dashoffset="0" image-rendering="auto">
  <!--Unicode Character 'SPEAKER WITH THREE SOUND WAVES' (U+1F50A)-->
  <defs id="genericDefs" />
  <g>
    <g>
      <path d="M266.7656 198.7031 Q266.7656 263.5312 222.8906 319.2188 L212.625 311.2031 Q253.8281 260.2969 253.8281 198.7031 Q253.8281 138.5156 212.7656 86.3438 L223.0312 78.3281 Q266.7656 133.875 266.7656 198.7031 ZM235.8281 198.7031 Q235.8281 252.5625 199.5469 299.9531 L189.2812 292.2188 Q222.8906 248.3438 222.8906 198.7031 Q222.8906 149.3438 189.2812 105.3281 L199.5469 97.5938 Q235.8281 144.1406 235.8281 198.7031 ZM204.8906 198.7031 Q204.8906 241.3125 176.0625 280.6875 L165.6562 273.0938 Q191.9531 237.7969 191.9531 198.7031 Q191.9531 160.3125 165.6562 124.3125 L176.0625 116.7188 Q204.8906 156.2344 204.8906 198.7031 ZM136.125 301.0781 L69.8906 239.9062 L28.125 239.9062 L28.125 157.5 L70.0312 157.5 L136.125 96.4688 L136.125 301.0781 Z" stroke="none" />
    </g>
  </g>
</svg>
